<?xml version="1.0" encoding="utf-8"?>
<!-- Generator: Adobe Illustrator 18.1.0, SVG Export Plug-In . SVG Version: 6.00 Build 0)  -->
<!DOCTYPE svg PUBLIC "-//W3C//DTD SVG 1.1//EN" "http://www.w3.org/Graphics/SVG/1.1/DTD/svg11.dtd">
<svg version="1.1" id="Layer_1" xmlns="http://www.w3.org/2000/svg" xmlns:xlink="http://www.w3.org/1999/xlink" x="0px" y="0px"
	 viewBox="125 125 250 250" enable-background="new 125 125 250 250" xml:space="preserve">
<circle fill="#E6E6E6" cx="250" cy="250" r="122.2"/>
<path fill="#FFFFFF" d="M218.2,354.5c-21.5-7-1.9-45-9.9-75c-4.7-17.5-22.4-29.4-28.4-44.6c-8.2-20.7-3.5-42.9,2.4-48.9
	c35.9-36.6,34.3-6.9,66.9-7.4c26.5-0.5,39.8-20.1,67.5,4.3c10.6,9.3,3.4,32-3.7,53.3c-5.1,15.5-16.9,20.9-19.2,39.1
	c-4.8,37.3,15.5,71.3-9.3,80.4c-15.9,5.9-16.7-30.4-32.2-30.8C237.7,324.3,243,362.5,218.2,354.5z"/>
<line fill="none" stroke="#3498DB" stroke-width="2.0392" stroke-linecap="round" stroke-miterlimit="10" x1="145.3" y1="248.7" x2="357.4" y2="248.7"/>
<path fill="#FFFFFF" stroke="#3498DB" stroke-width="4.0784" stroke-miterlimit="10" d="M275.3,279.6h-50.7c-3.4,0-6.1-2.8-6.1-6.1
	v-50.7c0-3.4,2.8-6.1,6.1-6.1h50.7c3.4,0,6.1,2.8,6.1,6.1v50.7C281.5,276.9,278.7,279.6,275.3,279.6z"/>
</svg>
