<?xml version="1.0" encoding="utf-8"?>
<!-- Generator: Adobe Illustrator 18.1.0, SVG Export Plug-In . SVG Version: 6.00 Build 0)  -->
<!DOCTYPE svg PUBLIC "-//W3C//DTD SVG 1.1//EN" "http://www.w3.org/Graphics/SVG/1.1/DTD/svg11.dtd">
<svg version="1.1" id="Layer_1" xmlns="http://www.w3.org/2000/svg" xmlns:xlink="http://www.w3.org/1999/xlink" x="0px" y="0px"
	 viewBox="0 0 250 250" enable-background="new 0 0 250 250" xml:space="preserve">
<circle fill="#E6E6E6" cx="124.8" cy="125.7" r="119.8"/>
<path fill="#FFFFFF" d="M231.3,179.7c0,0-10.3-7.6-18.6-7.5c-8,0.1-17.5,4.8-24.5-1.2c-12.5-10.7-4.7-35-14.3-40.2
	c-5.6-3-12.2,2.3-16.8,0.8c-3-0.9-3-3.9-5.3-3.8c-1.8,0.1-6,4.3-6,4.3s-0.1-5.6-1.1-6c-4.4-1.6-7.5,1.6-8.5,1.2
	c-5.7-2.1-1.6-8.2-4.8-10.7c-4.7-3.6-9.5,3.5-13.7,6.9c-6.2,5.2-10.7,10.2-18.3,9.4c-60.7-6.3-75.2,50-74.4,73.8
	c0.6,19-4.4,32.3,39.5,36.8c52.5,5.5,78.3,1.7,78.3,1.7s36.2-2.5,45.2,0.1c8.2,2.5,28.6,0,28.6,0s5.7,5.1,11.2-17.6
	C234.7,198.3,231.3,179.7,231.3,179.7z"/>
<rect x="148.7" y="118.6" fill="none" width="12.4" height="9.7"/>
<text transform="matrix(1 0 0 1 148.7285 122.874)" fill="#3498DB" font-family="'MyriadPro-Regular'" font-size="6">Z</text>
<rect x="138.6" y="92.2" fill="none" width="17.2" height="19"/>
<text transform="matrix(1 0 0 1 138.6074 104.9819)" fill="#3498DB" font-family="'MyriadPro-Regular'" font-size="18">Z</text>
<rect x="111.2" y="65.5" fill="none" width="27.5" height="30.2"/>
<text transform="matrix(1 0 0 1 111.1719 86.8125)" fill="#3498DB" font-family="'MyriadPro-Regular'" font-size="30">Z</text>
<rect x="64.3" y="41.7" fill="none" width="41.3" height="39"/>
<text transform="matrix(1 0 0 1 64.3101 77.1499)" fill="#3498DB" font-family="'MyriadPro-Regular'" font-size="50">Z</text>
</svg>
