<?xml version="1.0" encoding="utf-8"?>
<!-- Generator: Adobe Illustrator 18.1.0, SVG Export Plug-In . SVG Version: 6.00 Build 0)  -->
<!DOCTYPE svg PUBLIC "-//W3C//DTD SVG 1.1//EN" "http://www.w3.org/Graphics/SVG/1.1/DTD/svg11.dtd">
<svg version="1.1" id="Layer_1" xmlns="http://www.w3.org/2000/svg" xmlns:xlink="http://www.w3.org/1999/xlink" x="0px" y="0px"
	 viewBox="0 0 250 250" enable-background="new 0 0 250 250" xml:space="preserve">
<circle fill="#E6E6E6" cx="125" cy="125.2" r="119.8"/>
<path fill="#FFFFFF" d="M179.2,205.5H70.8c-3.3,0-6-2.7-6-6V67.4c0-3.3,2.7-6,6-6h108.3c3.3,0,6,2.7,6,6v132.1
	C185.2,202.8,182.5,205.5,179.2,205.5z"/>
<path fill="#FFFFFF" d="M159.7,69.7H90.3c-3.3,0-6-2.7-6-6V52.5c0-3.3,2.7-6,6-6h69.4c3.3,0,6,2.7,6,6v11.1
	C165.7,67,163,69.7,159.7,69.7z"/>
<path fill="none" stroke="#3498DB" stroke-width="4" stroke-miterlimit="10" d="M87,82h76H87z"/>
<path fill="none" stroke="#3498DB" stroke-width="4" stroke-miterlimit="10" d="M87,124h76H87z"/>
<line fill="none" stroke="#3498DB" stroke-width="2" stroke-miterlimit="10" x1="93" y1="92" x2="163" y2="92"/>
<line fill="none" stroke="#3498DB" stroke-width="2" stroke-miterlimit="10" x1="93" y1="97" x2="163" y2="97"/>
<line fill="none" stroke="#3498DB" stroke-width="2" stroke-miterlimit="10" x1="94" y1="103" x2="163" y2="103"/>
<line fill="none" stroke="#3498DB" stroke-width="2" stroke-miterlimit="10" x1="93" y1="108" x2="163" y2="108"/>
<line fill="none" stroke="#3498DB" stroke-width="2" stroke-miterlimit="10" x1="93" y1="113" x2="163" y2="113"/>
<line fill="none" stroke="#3498DB" stroke-width="2" stroke-miterlimit="10" x1="93" y1="135" x2="163" y2="135"/>
<line fill="none" stroke="#3498DB" stroke-width="2" stroke-miterlimit="10" x1="93" y1="140" x2="163" y2="140"/>
<polyline fill="none" stroke="#3498DB" stroke-width="4" stroke-miterlimit="10" points="96.8,172.8 113.5,189.6 153.2,149.8 "/>
</svg>
