<?xml version="1.0" encoding="utf-8"?>
<!-- Generator: Adobe Illustrator 18.1.0, SVG Export Plug-In . SVG Version: 6.00 Build 0)  -->
<!DOCTYPE svg PUBLIC "-//W3C//DTD SVG 1.1//EN" "http://www.w3.org/Graphics/SVG/1.1/DTD/svg11.dtd">
<svg version="1.1" id="Layer_1" xmlns="http://www.w3.org/2000/svg" xmlns:xlink="http://www.w3.org/1999/xlink" x="0px" y="0px"
	 viewBox="0 0 250 250" enable-background="new 0 0 250 250" xml:space="preserve">
<circle fill="#E6E6E6" cx="125.6" cy="124.5" r="119.8"/>
<g id="gnVDPb.tif" display="none">
	
		<image display="inline" overflow="visible" width="432" height="599" id="Layer_0_1_" xlink:href="6C3204DE6925F466.png"  transform="matrix(0.8589 0 0 0.8589 -73 -47.5)">
	</image>
</g>
<path fill="#FFFFFF" d="M150.4,242.7c0,0,4.3-6.5,4.2-14.8c-0.1-8-4.8-17.5,1.2-24.5c10.7-12.5,35-4.7,40.2-14.3
	c3-5.6-2.3-12.2-0.8-16.8c0.9-3,3.9-3,3.8-5.3c-0.1-1.8-4.3-6-4.3-6s5.6-0.1,6-1.1c1.6-4.4-1.6-7.5-1.2-8.5
	c2.1-5.7,8.2-1.6,10.7-4.8c3.6-4.7-3.5-9.5-6.9-13.7c-5.2-6.2-10.2-10.7-9.4-18.3c6.3-60.7-50-75.2-73.8-74.4
	c-19,0.6-60.9,5.9-65.5,49.8c-5.5,52.5,27,68,27,68s-3.6,27.8-6.2,36.8c-2.5,8.2-15.7,31-15.7,31s16.7,11.8,39.5,17.2
	C128.5,249.8,150.4,242.7,150.4,242.7z"/>
<circle fill="none" stroke="#3498DB" stroke-width="1.728" stroke-miterlimit="10" cx="141.9" cy="146.4" r="12.1"/>
<circle fill="none" stroke="#3498DB" stroke-width="1.728" stroke-miterlimit="10" cx="141.9" cy="146.4" r="23.3"/>
<circle fill="#3498DB" cx="141.9" cy="146.2" r="3.4"/>
</svg>
